<mxfile host="Electron" modified="2024-05-26T10:38:16.611Z" agent="Mozilla/5.0 (Macintosh; Intel Mac OS X 10_15_7) AppleWebKit/537.36 (KHTML, like Gecko) draw.io/23.1.5 Chrome/120.0.6099.109 Electron/28.1.0 Safari/537.36" etag="lqqmuQ0TYxvZakKHH9jJ" version="23.1.5" type="device">
  <diagram id="wvU-5EyU5MdOECPPXWuQ" name="第 1 页">
    <mxGraphModel dx="1025" dy="854" grid="0" gridSize="10" guides="1" tooltips="1" connect="1" arrows="1" fold="1" page="1" pageScale="1" pageWidth="827" pageHeight="350" math="0" shadow="0">
      <root>
        <mxCell id="0" />
        <mxCell id="1" parent="0" />
        <mxCell id="LlC-iRQyE9Zk9QQOuHFk-1" value="&lt;font style=&quot;font-size: 15px;&quot;&gt;TsFile&lt;/font&gt;" style="shape=note;whiteSpace=wrap;html=1;backgroundOutline=1;darkOpacity=0.05;fillColor=default;strokeColor=#000000;" parent="1" vertex="1">
          <mxGeometry x="40" y="94" width="100" height="110" as="geometry" />
        </mxCell>
        <mxCell id="LlC-iRQyE9Zk9QQOuHFk-2" value="负载采样程序" style="shape=cube;whiteSpace=wrap;html=1;boundedLbl=1;backgroundOutline=1;darkOpacity=0.05;darkOpacity2=0.1;fontSize=15;fillColor=default;strokeColor=#000000;" parent="1" vertex="1">
          <mxGeometry x="216" y="129" width="120" height="80" as="geometry" />
        </mxCell>
        <mxCell id="LlC-iRQyE9Zk9QQOuHFk-3" value="&lt;font style=&quot;font-size: 15px;&quot;&gt;TsFile&lt;/font&gt;" style="shape=note;whiteSpace=wrap;html=1;backgroundOutline=1;darkOpacity=0.05;fillColor=default;strokeColor=#000000;" parent="1" vertex="1">
          <mxGeometry x="50" y="104" width="100" height="110" as="geometry" />
        </mxCell>
        <mxCell id="LlC-iRQyE9Zk9QQOuHFk-5" style="edgeStyle=orthogonalEdgeStyle;rounded=0;orthogonalLoop=1;jettySize=auto;html=1;fontSize=15;" parent="1" source="LlC-iRQyE9Zk9QQOuHFk-4" target="LlC-iRQyE9Zk9QQOuHFk-2" edge="1">
          <mxGeometry relative="1" as="geometry" />
        </mxCell>
        <mxCell id="LlC-iRQyE9Zk9QQOuHFk-4" value="&lt;font style=&quot;font-size: 15px;&quot;&gt;TsFile&lt;/font&gt;" style="shape=note;whiteSpace=wrap;html=1;backgroundOutline=1;darkOpacity=0.05;fillColor=default;strokeColor=#000000;" parent="1" vertex="1">
          <mxGeometry x="60" y="114" width="100" height="110" as="geometry" />
        </mxCell>
        <mxCell id="LlC-iRQyE9Zk9QQOuHFk-6" value="时间序列类型分布" style="rounded=1;whiteSpace=wrap;html=1;fontSize=15;fillColor=default;strokeColor=#000000;" parent="1" vertex="1">
          <mxGeometry x="386" y="4" width="170" height="60" as="geometry" />
        </mxCell>
        <mxCell id="LlC-iRQyE9Zk9QQOuHFk-7" value="时间序列频率分布" style="rounded=1;whiteSpace=wrap;html=1;fontSize=15;fillColor=default;strokeColor=#000000;" parent="1" vertex="1">
          <mxGeometry x="386" y="69" width="170" height="60" as="geometry" />
        </mxCell>
        <mxCell id="LlC-iRQyE9Zk9QQOuHFk-8" value="设备序列数分布" style="rounded=1;whiteSpace=wrap;html=1;fontSize=15;fillColor=default;strokeColor=#000000;" parent="1" vertex="1">
          <mxGeometry x="386" y="134" width="170" height="60" as="geometry" />
        </mxCell>
        <mxCell id="LlC-iRQyE9Zk9QQOuHFk-9" value="设备序列数分布" style="rounded=1;whiteSpace=wrap;html=1;fontSize=15;fillColor=default;strokeColor=#000000;" parent="1" vertex="1">
          <mxGeometry x="386" y="204" width="170" height="60" as="geometry" />
        </mxCell>
        <mxCell id="LlC-iRQyE9Zk9QQOuHFk-10" value="序列数值分布" style="rounded=1;whiteSpace=wrap;html=1;fontSize=15;fillColor=default;strokeColor=#000000;" parent="1" vertex="1">
          <mxGeometry x="386" y="274" width="170" height="60" as="geometry" />
        </mxCell>
        <mxCell id="LlC-iRQyE9Zk9QQOuHFk-11" value="" style="shape=curlyBracket;whiteSpace=wrap;html=1;rounded=1;fontSize=15;" parent="1" vertex="1">
          <mxGeometry x="350" y="34" width="20" height="270" as="geometry" />
        </mxCell>
        <mxCell id="LlC-iRQyE9Zk9QQOuHFk-12" value="" style="shape=flexArrow;endArrow=classic;html=1;rounded=0;fontSize=15;" parent="1" edge="1">
          <mxGeometry width="50" height="50" relative="1" as="geometry">
            <mxPoint x="570" y="163.5" as="sourcePoint" />
            <mxPoint x="620" y="163.5" as="targetPoint" />
          </mxGeometry>
        </mxCell>
        <mxCell id="LlC-iRQyE9Zk9QQOuHFk-14" value="" style="shape=image;verticalLabelPosition=bottom;labelBackgroundColor=default;verticalAlign=top;aspect=fixed;imageAspect=0;image=data:image/svg+xml,PHN2ZyB4bWxuczp4bGluaz0iaHR0cDovL3d3dy53My5vcmcvMTk5OS94bGluayIgeG1sbnM9Imh0dHA6Ly93d3cudzMub3JnLzIwMDAvc3ZnIiBoZWlnaHQ9IjIwMCIgd2lkdGg9IjIwMCIgdmVyc2lvbj0iMS4xIiB2aWV3Qm94PSIwIDAgMTAyNCAxMDI0IiBjbGFzcz0iaWNvbiI+PHBhdGggZmlsbD0iI0JDQzBDMSIgZD0iTTAgMGg0MC43NTUydjEwMjRIMHoiLz48cGF0aCBmaWxsPSIjQkNDMEMxIiBkPSJNMS42OTk4NCA5NjkuNjU2MzJIMTAyNFYxMDI0SDEuNjk5ODR6Ii8+PHBhdGggZmlsbD0iIzY5RDQ4MCIgZD0iTTE1Ni4yMzE2OCAzNjEuNzEyNjRoMTI1LjY2NTI4djU0My40MTYzMkgxNTYuMjMxNjh6Ii8+PHBhdGggZmlsbD0iI0ZGQzQ2RSIgZD0iTTQ1NS4xMTE2OCA1NDEuNzE2NDhoMTI1LjY2NTI4djM2My40MDczNkg0NTUuMTExNjh6Ii8+PHBhdGggZmlsbD0iIzFFN0VGMSIgZD0iTTc1My45OTE2OCAxNDQuMzQzMDRoMTI1LjY2NTI4djc2MC43ODA4aC0xMjUuNjY1Mjh6Ii8+PC9zdmc+;" parent="1" vertex="1">
          <mxGeometry x="640" y="90.5" width="147" height="147" as="geometry" />
        </mxCell>
      </root>
    </mxGraphModel>
  </diagram>
</mxfile>
